<svg xmlns="http://www.w3.org/2000/svg" version="1.1" width="421" height="196">
<path d="M 2.878906 91.319336 L 2.878906 84.412109 L 6.729980 84.412109 L 6.729980 85.335938 L 3.738281 85.335938 L 3.738281 91.319336 Z " fill="rgb(0, 0, 0)" fill-opacity="1.000000" />
<path d="M 2.878906 104.319336 L 2.878906 90.300781 L 3.738281 90.300781 L 3.738281 104.319336 Z " fill="rgb(0, 0, 0)" fill-opacity="1.000000" />
<path d="M 2.878906 111.335938 L 2.878906 103.300781 L 3.738281 103.300781 L 3.738281 110.412109 L 6.729980 110.412109 L 6.729980 111.335938 Z " fill="rgb(0, 0, 0)" fill-opacity="1.000000" />
<path d="M 219.878906 130.319336 L 219.878906 116.300781 L 220.738281 116.300781 L 220.738281 123.412109 L 223.729980 123.412109 L 223.729980 124.335938 L 220.738281 124.335938 L 220.738281 130.319336 Z " fill="rgb(0, 0, 0)" fill-opacity="1.000000" />
<path d="M 219.878906 143.319336 L 219.878906 129.300781 L 220.738281 129.300781 L 220.738281 143.319336 Z " fill="rgb(0, 0, 0)" fill-opacity="1.000000" />
<path d="M 219.878906 156.319336 L 219.878906 142.300781 L 220.738281 142.300781 L 220.738281 156.319336 Z " fill="rgb(0, 0, 0)" fill-opacity="1.000000" />
<path d="M 219.878906 169.319336 L 219.878906 155.300781 L 220.738281 155.300781 L 220.738281 169.319336 Z " fill="rgb(0, 0, 0)" fill-opacity="1.000000" />
<path d="M 219.878906 176.335938 L 219.878906 168.300781 L 220.738281 168.300781 L 220.738281 175.412109 L 223.729980 175.412109 L 223.729980 176.335938 Z " fill="rgb(0, 0, 0)" fill-opacity="1.000000" />
<path d="M 268.878906 189.335938 L 268.878906 181.300781 L 269.738281 181.300781 L 269.738281 188.412109 L 272.729980 188.412109 L 272.729980 189.335938 Z " fill="rgb(0, 0, 0)" fill-opacity="1.000000" />
<path d="M 272.892578 189.335938 L 272.892578 188.412109 L 279.729980 188.412109 L 279.729980 189.335938 Z " fill="rgb(0, 0, 0)" fill-opacity="1.000000" />
<path d="M 279.892578 189.335938 L 279.892578 188.412109 L 286.729980 188.412109 L 286.729980 189.335938 Z " fill="rgb(0, 0, 0)" fill-opacity="1.000000" />
<path d="M 286.892578 189.335938 L 286.892578 188.412109 L 293.729980 188.412109 L 293.729980 189.335938 Z " fill="rgb(0, 0, 0)" fill-opacity="1.000000" />
<path d="M 293.892578 189.335938 L 293.892578 188.412109 L 300.729980 188.412109 L 300.729980 189.335938 Z " fill="rgb(0, 0, 0)" fill-opacity="1.000000" />
<path d="M 300.892578 189.335938 L 300.892578 188.412109 L 307.729980 188.412109 L 307.729980 189.335938 Z " fill="rgb(0, 0, 0)" fill-opacity="1.000000" />
<path d="M 307.892578 189.335938 L 307.892578 188.412109 L 314.729980 188.412109 L 314.729980 189.335938 Z " fill="rgb(0, 0, 0)" fill-opacity="1.000000" />
<path d="M 314.892578 189.335938 L 314.892578 188.412109 L 321.729980 188.412109 L 321.729980 189.335938 Z " fill="rgb(0, 0, 0)" fill-opacity="1.000000" />
<path d="M 321.892578 189.335938 L 321.892578 188.412109 L 328.729980 188.412109 L 328.729980 189.335938 Z " fill="rgb(0, 0, 0)" fill-opacity="1.000000" />
<path d="M 328.892578 189.335938 L 328.892578 188.412109 L 335.729980 188.412109 L 335.729980 189.335938 Z " fill="rgb(0, 0, 0)" fill-opacity="1.000000" />
<path d="M 335.892578 189.335938 L 335.892578 188.412109 L 342.729980 188.412109 L 342.729980 189.335938 Z " fill="rgb(0, 0, 0)" fill-opacity="1.000000" />
<path d="M 342.892578 189.335938 L 342.892578 188.412109 L 349.729980 188.412109 L 349.729980 189.335938 Z " fill="rgb(0, 0, 0)" fill-opacity="1.000000" />
<path d="M 349.892578 189.335938 L 349.892578 188.412109 L 356.729980 188.412109 L 356.729980 189.335938 Z " fill="rgb(0, 0, 0)" fill-opacity="1.000000" />
<path d="M 356.892578 189.335938 L 356.892578 188.412109 L 363.729980 188.412109 L 363.729980 189.335938 Z " fill="rgb(0, 0, 0)" fill-opacity="1.000000" />
<path d="M 363.892578 189.335938 L 363.892578 188.412109 L 370.729980 188.412109 L 370.729980 189.335938 Z " fill="rgb(0, 0, 0)" fill-opacity="1.000000" />
<path d="M 370.892578 189.335938 L 370.892578 188.412109 L 377.729980 188.412109 L 377.729980 189.335938 Z " fill="rgb(0, 0, 0)" fill-opacity="1.000000" />
<path d="M 377.892578 189.335938 L 377.892578 188.412109 L 384.729980 188.412109 L 384.729980 189.335938 Z " fill="rgb(0, 0, 0)" fill-opacity="1.000000" />
<path d="M 384.892578 189.335938 L 384.892578 188.412109 L 391.729980 188.412109 L 391.729980 189.335938 Z " fill="rgb(0, 0, 0)" fill-opacity="1.000000" />
<path d="M 391.892578 189.335938 L 391.892578 188.412109 L 398.729980 188.412109 L 398.729980 189.335938 Z " fill="rgb(0, 0, 0)" fill-opacity="1.000000" />
<path d="M 398.892578 189.335938 L 398.892578 188.412109 L 401.878906 188.412109 L 401.878906 181.300781 L 402.738281 181.300781 L 402.738281 189.335938 Z " fill="rgb(0, 0, 0)" fill-opacity="1.000000" />
<path d="M 223.892578 176.335938 L 223.892578 175.412109 L 230.729980 175.412109 L 230.729980 176.335938 Z " fill="rgb(0, 0, 0)" fill-opacity="1.000000" />
<path d="M 230.892578 176.335938 L 230.892578 175.412109 L 237.729980 175.412109 L 237.729980 176.335938 Z " fill="rgb(0, 0, 0)" fill-opacity="1.000000" />
<path d="M 237.892578 176.335938 L 237.892578 175.412109 L 244.729980 175.412109 L 244.729980 176.335938 Z " fill="rgb(0, 0, 0)" fill-opacity="1.000000" />
<path d="M 244.892578 176.335938 L 244.892578 175.412109 L 251.729980 175.412109 L 251.729980 176.335938 Z " fill="rgb(0, 0, 0)" fill-opacity="1.000000" />
<path d="M 251.892578 176.335938 L 251.892578 175.412109 L 258.729980 175.412109 L 258.729980 176.335938 Z " fill="rgb(0, 0, 0)" fill-opacity="1.000000" />
<path d="M 259.032227 179.418945 L 259.032227 172.866211 L 265.590332 176.142578 Z " fill="rgb(0, 0, 0)" fill-opacity="1.000000" />
<path d="M 268.878906 182.319336 L 268.878906 168.300781 L 269.738281 168.300781 L 269.738281 182.319336 Z " fill="rgb(0, 0, 0)" fill-opacity="1.000000" />
<path d="M 322.789551 175.922363 L 322.789551 170.980957 L 323.879883 170.980957 L 323.879883 176.416504 Q 323.879883 177.001953 323.912109 177.251709 Q 323.944336 177.501465 324.024902 177.635742 Q 324.196777 177.952637 324.521729 178.113770 Q 324.846680 178.274902 325.308594 178.274902 Q 325.775879 178.274902 326.098145 178.113770 Q 326.420410 177.952637 326.597656 177.635742 Q 326.678223 177.501465 326.710449 177.254395 Q 326.742676 177.007324 326.742676 176.427246 L 326.742676 170.980957 L 327.827637 170.980957 L 327.827637 175.922363 Q 327.827637 177.152344 327.674561 177.670654 Q 327.521484 178.188965 327.145508 178.527344 Q 326.791016 178.844238 326.334473 179.000000 Q 325.877930 179.155762 325.308594 179.155762 Q 324.744629 179.155762 324.288086 179.000000 Q 323.831543 178.844238 323.471680 178.527344 Q 323.101074 178.194336 322.945312 177.665283 Q 322.789551 177.136230 322.789551 175.922363 Z " fill="rgb(0, 0, 0)" fill-opacity="1.000000" />
<path d="M 334.226074 173.193848 L 334.226074 174.160645 Q 333.801758 173.913574 333.372070 173.790039 Q 332.942383 173.666504 332.496582 173.666504 Q 331.825195 173.666504 331.494873 173.884033 Q 331.164551 174.101562 331.164551 174.547363 Q 331.164551 174.950195 331.411621 175.148926 Q 331.658691 175.347656 332.641602 175.535645 L 333.039062 175.610840 Q 333.774902 175.750488 334.153564 176.169434 Q 334.532227 176.588379 334.532227 177.259766 Q 334.532227 178.151367 333.898438 178.653564 Q 333.264648 179.155762 332.136719 179.155762 Q 331.690918 179.155762 331.202148 179.061768 Q 330.713379 178.967773 330.144043 178.779785 L 330.144043 177.759277 Q 330.697266 178.043945 331.202148 178.186279 Q 331.707031 178.328613 332.158203 178.328613 Q 332.813477 178.328613 333.173340 178.062744 Q 333.533203 177.796875 333.533203 177.318848 Q 333.533203 176.631348 332.217285 176.368164 L 332.174316 176.357422 L 331.803711 176.282227 Q 330.949707 176.115723 330.557617 175.720947 Q 330.165527 175.326172 330.165527 174.644043 Q 330.165527 173.779297 330.750977 173.309326 Q 331.336426 172.839355 332.421387 172.839355 Q 332.904785 172.839355 333.350586 172.927979 Q 333.796387 173.016602 334.226074 173.193848 Z " fill="rgb(0, 0, 0)" fill-opacity="1.000000" />
<path d="M 342.015625 175.498047 L 342.015625 175.981445 L 337.734863 175.981445 L 337.734863 176.013672 Q 337.691895 177.243652 338.204834 177.780762 Q 338.717773 178.317871 339.652344 178.317871 Q 340.125000 178.317871 340.640625 178.167480 Q 341.156250 178.017090 341.741699 177.710938 L 341.741699 178.693848 Q 341.177734 178.924805 340.654053 179.040283 Q 340.130371 179.155762 339.641602 179.155762 Q 338.239746 179.155762 337.450195 178.315186 Q 336.660645 177.474609 336.660645 175.997559 Q 336.660645 174.558105 337.434082 173.698730 Q 338.207520 172.839355 339.496582 172.839355 Q 340.645996 172.839355 341.309326 173.618164 Q 341.972656 174.396973 342.015625 175.498047 Z M 341.027344 175.208008 Q 340.962891 174.584961 340.573486 174.131104 Q 340.184082 173.677246 339.453613 173.677246 Q 338.739258 173.677246 338.277344 174.149902 Q 337.815430 174.622559 337.772461 175.213379 Z " fill="rgb(0, 0, 0)" fill-opacity="1.000000" />
<path d="M 349.203613 174.225098 Q 348.886719 173.978027 348.559082 173.865234 Q 348.231445 173.752441 347.839355 173.752441 Q 346.915527 173.752441 346.426758 174.332520 Q 345.937988 174.912598 345.937988 176.008301 L 345.937988 179.000000 L 344.944336 179.000000 L 344.944336 172.984375 L 345.937988 172.984375 L 345.937988 174.160645 Q 346.185059 173.521484 346.697998 173.180420 Q 347.210938 172.839355 347.914551 172.839355 Q 348.279785 172.839355 348.596680 172.930664 Q 348.913574 173.021973 349.203613 173.215332 Z " fill="rgb(0, 0, 0)" fill-opacity="1.000000" />
<path d="M 401.878906 182.319336 L 401.878906 168.300781 L 402.738281 168.300781 L 402.738281 182.319336 Z " fill="rgb(0, 0, 0)" fill-opacity="1.000000" />
<path d="M 414.503906 175.820312 Q 414.686523 175.820312 414.783203 176.121094 Q 414.971191 176.690430 415.051758 176.690430 Q 415.116211 176.690430 415.180664 176.593750 Q 416.496582 174.477539 417.624512 173.172363 Q 417.914551 172.833984 418.548340 172.833984 Q 418.698730 172.833984 418.749756 172.860840 Q 418.800781 172.887695 418.800781 172.930664 Q 418.800781 173.000488 418.645020 173.188477 Q 416.829590 175.369141 415.282715 177.796875 Q 415.175293 177.968750 414.842285 177.968750 Q 414.503906 177.968750 414.439453 177.936523 Q 414.278320 177.866699 414.063477 177.216797 Q 413.821777 176.497070 413.821777 176.314453 Q 413.821777 176.121094 414.149414 175.938477 Q 414.348145 175.820312 414.503906 175.820312 Z " fill="rgb(0, 0, 0)" fill-opacity="1.000000" />
<path d="M 268.878906 137.335938 L 268.878906 129.300781 L 269.738281 129.300781 L 269.738281 136.412109 L 272.729980 136.412109 L 272.729980 137.335938 Z " fill="rgb(0, 0, 0)" fill-opacity="1.000000" />
<path d="M 268.878906 169.319336 L 268.878906 162.412109 L 272.729980 162.412109 L 272.729980 163.335938 L 269.738281 163.335938 L 269.738281 169.319336 Z " fill="rgb(0, 0, 0)" fill-opacity="1.000000" />
<path d="M 272.892578 163.335938 L 272.892578 162.412109 L 279.729980 162.412109 L 279.729980 163.335938 Z " fill="rgb(0, 0, 0)" fill-opacity="1.000000" />
<path d="M 279.892578 163.335938 L 279.892578 162.412109 L 286.729980 162.412109 L 286.729980 163.335938 Z " fill="rgb(0, 0, 0)" fill-opacity="1.000000" />
<path d="M 286.892578 163.335938 L 286.892578 162.412109 L 293.729980 162.412109 L 293.729980 163.335938 Z " fill="rgb(0, 0, 0)" fill-opacity="1.000000" />
<path d="M 293.892578 163.335938 L 293.892578 162.412109 L 300.729980 162.412109 L 300.729980 163.335938 Z " fill="rgb(0, 0, 0)" fill-opacity="1.000000" />
<path d="M 300.892578 163.335938 L 300.892578 162.412109 L 307.729980 162.412109 L 307.729980 163.335938 Z " fill="rgb(0, 0, 0)" fill-opacity="1.000000" />
<path d="M 307.892578 163.335938 L 307.892578 162.412109 L 314.729980 162.412109 L 314.729980 163.335938 Z " fill="rgb(0, 0, 0)" fill-opacity="1.000000" />
<path d="M 314.892578 163.335938 L 314.892578 162.412109 L 321.729980 162.412109 L 321.729980 163.335938 Z " fill="rgb(0, 0, 0)" fill-opacity="1.000000" />
<path d="M 321.892578 163.335938 L 321.892578 162.412109 L 328.729980 162.412109 L 328.729980 163.335938 Z " fill="rgb(0, 0, 0)" fill-opacity="1.000000" />
<path d="M 328.892578 163.335938 L 328.892578 162.412109 L 335.729980 162.412109 L 335.729980 163.335938 Z " fill="rgb(0, 0, 0)" fill-opacity="1.000000" />
<path d="M 335.892578 163.335938 L 335.892578 162.412109 L 342.729980 162.412109 L 342.729980 163.335938 Z " fill="rgb(0, 0, 0)" fill-opacity="1.000000" />
<path d="M 342.892578 163.335938 L 342.892578 162.412109 L 349.729980 162.412109 L 349.729980 163.335938 Z " fill="rgb(0, 0, 0)" fill-opacity="1.000000" />
<path d="M 349.892578 163.335938 L 349.892578 162.412109 L 356.729980 162.412109 L 356.729980 163.335938 Z " fill="rgb(0, 0, 0)" fill-opacity="1.000000" />
<path d="M 356.892578 163.335938 L 356.892578 162.412109 L 363.729980 162.412109 L 363.729980 163.335938 Z " fill="rgb(0, 0, 0)" fill-opacity="1.000000" />
<path d="M 363.892578 163.335938 L 363.892578 162.412109 L 370.729980 162.412109 L 370.729980 163.335938 Z " fill="rgb(0, 0, 0)" fill-opacity="1.000000" />
<path d="M 370.892578 163.335938 L 370.892578 162.412109 L 377.729980 162.412109 L 377.729980 163.335938 Z " fill="rgb(0, 0, 0)" fill-opacity="1.000000" />
<path d="M 377.892578 163.335938 L 377.892578 162.412109 L 384.729980 162.412109 L 384.729980 163.335938 Z " fill="rgb(0, 0, 0)" fill-opacity="1.000000" />
<path d="M 384.892578 163.335938 L 384.892578 162.412109 L 391.729980 162.412109 L 391.729980 163.335938 Z " fill="rgb(0, 0, 0)" fill-opacity="1.000000" />
<path d="M 391.892578 163.335938 L 391.892578 162.412109 L 398.729980 162.412109 L 398.729980 163.335938 Z " fill="rgb(0, 0, 0)" fill-opacity="1.000000" />
<path d="M 401.878906 169.319336 L 401.878906 163.335938 L 398.892578 163.335938 L 398.892578 162.412109 L 402.738281 162.412109 L 402.738281 169.319336 Z " fill="rgb(0, 0, 0)" fill-opacity="1.000000" />
<path d="M 272.892578 137.335938 L 272.892578 136.412109 L 279.729980 136.412109 L 279.729980 137.335938 Z " fill="rgb(0, 0, 0)" fill-opacity="1.000000" />
<path d="M 279.892578 137.335938 L 279.892578 136.412109 L 286.729980 136.412109 L 286.729980 137.335938 Z " fill="rgb(0, 0, 0)" fill-opacity="1.000000" />
<path d="M 286.892578 137.335938 L 286.892578 136.412109 L 293.729980 136.412109 L 293.729980 137.335938 Z " fill="rgb(0, 0, 0)" fill-opacity="1.000000" />
<path d="M 293.892578 137.335938 L 293.892578 136.412109 L 300.729980 136.412109 L 300.729980 137.335938 Z " fill="rgb(0, 0, 0)" fill-opacity="1.000000" />
<path d="M 300.892578 137.335938 L 300.892578 136.412109 L 307.729980 136.412109 L 307.729980 137.335938 Z " fill="rgb(0, 0, 0)" fill-opacity="1.000000" />
<path d="M 307.892578 137.335938 L 307.892578 136.412109 L 314.729980 136.412109 L 314.729980 137.335938 Z " fill="rgb(0, 0, 0)" fill-opacity="1.000000" />
<path d="M 314.892578 137.335938 L 314.892578 136.412109 L 321.729980 136.412109 L 321.729980 137.335938 Z " fill="rgb(0, 0, 0)" fill-opacity="1.000000" />
<path d="M 321.892578 137.335938 L 321.892578 136.412109 L 328.729980 136.412109 L 328.729980 137.335938 Z " fill="rgb(0, 0, 0)" fill-opacity="1.000000" />
<path d="M 328.892578 137.335938 L 328.892578 136.412109 L 335.729980 136.412109 L 335.729980 137.335938 Z " fill="rgb(0, 0, 0)" fill-opacity="1.000000" />
<path d="M 335.892578 137.335938 L 335.892578 136.412109 L 342.729980 136.412109 L 342.729980 137.335938 Z " fill="rgb(0, 0, 0)" fill-opacity="1.000000" />
<path d="M 342.892578 137.335938 L 342.892578 136.412109 L 349.729980 136.412109 L 349.729980 137.335938 Z " fill="rgb(0, 0, 0)" fill-opacity="1.000000" />
<path d="M 349.892578 137.335938 L 349.892578 136.412109 L 356.729980 136.412109 L 356.729980 137.335938 Z " fill="rgb(0, 0, 0)" fill-opacity="1.000000" />
<path d="M 356.892578 137.335938 L 356.892578 136.412109 L 363.729980 136.412109 L 363.729980 137.335938 Z " fill="rgb(0, 0, 0)" fill-opacity="1.000000" />
<path d="M 363.892578 137.335938 L 363.892578 136.412109 L 370.729980 136.412109 L 370.729980 137.335938 Z " fill="rgb(0, 0, 0)" fill-opacity="1.000000" />
<path d="M 370.892578 137.335938 L 370.892578 136.412109 L 377.729980 136.412109 L 377.729980 137.335938 Z " fill="rgb(0, 0, 0)" fill-opacity="1.000000" />
<path d="M 377.892578 137.335938 L 377.892578 136.412109 L 384.729980 136.412109 L 384.729980 137.335938 Z " fill="rgb(0, 0, 0)" fill-opacity="1.000000" />
<path d="M 384.892578 137.335938 L 384.892578 136.412109 L 391.729980 136.412109 L 391.729980 137.335938 Z " fill="rgb(0, 0, 0)" fill-opacity="1.000000" />
<path d="M 391.892578 137.335938 L 391.892578 136.412109 L 398.729980 136.412109 L 398.729980 137.335938 Z " fill="rgb(0, 0, 0)" fill-opacity="1.000000" />
<path d="M 398.892578 137.335938 L 398.892578 136.412109 L 401.878906 136.412109 L 401.878906 129.300781 L 402.738281 129.300781 L 402.738281 137.335938 Z " fill="rgb(0, 0, 0)" fill-opacity="1.000000" />
<path d="M 223.892578 124.335938 L 223.892578 123.412109 L 230.729980 123.412109 L 230.729980 124.335938 Z " fill="rgb(0, 0, 0)" fill-opacity="1.000000" />
<path d="M 230.892578 124.335938 L 230.892578 123.412109 L 237.729980 123.412109 L 237.729980 124.335938 Z " fill="rgb(0, 0, 0)" fill-opacity="1.000000" />
<path d="M 237.892578 124.335938 L 237.892578 123.412109 L 244.729980 123.412109 L 244.729980 124.335938 Z " fill="rgb(0, 0, 0)" fill-opacity="1.000000" />
<path d="M 244.892578 124.335938 L 244.892578 123.412109 L 251.729980 123.412109 L 251.729980 124.335938 Z " fill="rgb(0, 0, 0)" fill-opacity="1.000000" />
<path d="M 251.892578 124.335938 L 251.892578 123.412109 L 258.729980 123.412109 L 258.729980 124.335938 Z " fill="rgb(0, 0, 0)" fill-opacity="1.000000" />
<path d="M 259.032227 127.418945 L 259.032227 120.866211 L 265.590332 124.142578 Z " fill="rgb(0, 0, 0)" fill-opacity="1.000000" />
<path d="M 268.878906 130.319336 L 268.878906 116.300781 L 269.738281 116.300781 L 269.738281 130.319336 Z " fill="rgb(0, 0, 0)" fill-opacity="1.000000" />
<path d="M 320.929688 126.339355 Q 320.494629 126.742188 319.949463 126.948975 Q 319.404297 127.155762 318.770508 127.155762 Q 317.245117 127.155762 316.396484 126.062744 Q 315.547852 124.969727 315.547852 122.998535 Q 315.547852 121.032715 316.407227 119.934326 Q 317.266602 118.835938 318.797363 118.835938 Q 319.302246 118.835938 319.764160 118.978271 Q 320.226074 119.120605 320.655762 119.410645 L 320.655762 120.522461 Q 320.220703 120.108887 319.764160 119.912842 Q 319.307617 119.716797 318.797363 119.716797 Q 317.739258 119.716797 317.210205 120.535889 Q 316.681152 121.354980 316.681152 122.998535 Q 316.681152 124.668945 317.194092 125.471924 Q 317.707031 126.274902 318.770508 126.274902 Q 319.130371 126.274902 319.401611 126.191650 Q 319.672852 126.108398 319.893066 125.931152 L 319.893066 123.777344 L 318.727539 123.777344 L 318.727539 122.885742 L 320.929688 122.885742 Z " fill="rgb(0, 0, 0)" fill-opacity="1.000000" />
<path d="M 328.203613 122.225098 Q 327.886719 121.978027 327.559082 121.865234 Q 327.231445 121.752441 326.839355 121.752441 Q 325.915527 121.752441 325.426758 122.332520 Q 324.937988 122.912598 324.937988 124.008301 L 324.937988 127.000000 L 323.944336 127.000000 L 323.944336 120.984375 L 324.937988 120.984375 L 324.937988 122.160645 Q 325.185059 121.521484 325.697998 121.180420 Q 326.210938 120.839355 326.914551 120.839355 Q 327.279785 120.839355 327.596680 120.930664 Q 327.913574 121.021973 328.203613 121.215332 Z " fill="rgb(0, 0, 0)" fill-opacity="1.000000" />
<path d="M 332.308594 121.677246 Q 331.556641 121.677246 331.169922 122.262695 Q 330.783203 122.848145 330.783203 123.997559 Q 330.783203 125.141602 331.169922 125.729736 Q 331.556641 126.317871 332.308594 126.317871 Q 333.065918 126.317871 333.452637 125.729736 Q 333.839355 125.141602 333.839355 123.997559 Q 333.839355 122.848145 333.452637 122.262695 Q 333.065918 121.677246 332.308594 121.677246 Z M 332.308594 120.839355 Q 333.560059 120.839355 334.223389 121.650391 Q 334.886719 122.461426 334.886719 123.997559 Q 334.886719 125.539062 334.226074 126.347412 Q 333.565430 127.155762 332.308594 127.155762 Q 331.057129 127.155762 330.396484 126.347412 Q 329.735840 125.539062 329.735840 123.997559 Q 329.735840 122.461426 330.396484 121.650391 Q 331.057129 120.839355 332.308594 120.839355 Z " fill="rgb(0, 0, 0)" fill-opacity="1.000000" />
<path d="M 337.047363 124.722656 L 337.047363 120.995117 L 338.035645 120.995117 L 338.035645 124.722656 Q 338.035645 125.533691 338.322998 125.915039 Q 338.610352 126.296387 339.211914 126.296387 Q 339.910156 126.296387 340.280762 125.804932 Q 340.651367 125.313477 340.651367 124.395020 L 340.651367 120.995117 L 341.645020 120.995117 L 341.645020 127.000000 L 340.651367 127.000000 L 340.651367 126.097656 Q 340.388184 126.618652 339.934326 126.887207 Q 339.480469 127.155762 338.873535 127.155762 Q 337.949707 127.155762 337.498535 126.551514 Q 337.047363 125.947266 337.047363 124.722656 Z " fill="rgb(0, 0, 0)" fill-opacity="1.000000" />
<path d="M 345.014160 126.242676 L 345.014160 129.288086 L 344.020508 129.288086 L 344.020508 120.984375 L 345.014160 120.984375 L 345.014160 121.752441 Q 345.261230 121.306641 345.672119 121.072998 Q 346.083008 120.839355 346.620117 120.839355 Q 347.710449 120.839355 348.330811 121.682617 Q 348.951172 122.525879 348.951172 124.019043 Q 348.951172 125.485352 348.328125 126.320557 Q 347.705078 127.155762 346.620117 127.155762 Q 346.072266 127.155762 345.661377 126.922119 Q 345.250488 126.688477 345.014160 126.242676 Z M 347.914551 123.997559 Q 347.914551 122.848145 347.552002 122.262695 Q 347.189453 121.677246 346.475098 121.677246 Q 345.755371 121.677246 345.384766 122.265381 Q 345.014160 122.853516 345.014160 123.997559 Q 345.014160 125.136230 345.384766 125.727051 Q 345.755371 126.317871 346.475098 126.317871 Q 347.189453 126.317871 347.552002 125.732422 Q 347.914551 125.146973 347.914551 123.997559 Z " fill="rgb(0, 0, 0)" fill-opacity="1.000000" />
<path d="M 401.878906 130.319336 L 401.878906 116.300781 L 402.738281 116.300781 L 402.738281 130.319336 Z " fill="rgb(0, 0, 0)" fill-opacity="1.000000" />
<path d="M 414.503906 123.820312 Q 414.686523 123.820312 414.783203 124.121094 Q 414.971191 124.690430 415.051758 124.690430 Q 415.116211 124.690430 415.180664 124.593750 Q 416.496582 122.477539 417.624512 121.172363 Q 417.914551 120.833984 418.548340 120.833984 Q 418.698730 120.833984 418.749756 120.860840 Q 418.800781 120.887695 418.800781 120.930664 Q 418.800781 121.000488 418.645020 121.188477 Q 416.829590 123.369141 415.282715 125.796875 Q 415.175293 125.968750 414.842285 125.968750 Q 414.503906 125.968750 414.439453 125.936523 Q 414.278320 125.866699 414.063477 125.216797 Q 413.821777 124.497070 413.821777 124.314453 Q 413.821777 124.121094 414.149414 123.938477 Q 414.348145 123.820312 414.503906 123.820312 Z " fill="rgb(0, 0, 0)" fill-opacity="1.000000" />
<path d="M 6.892578 111.335938 L 6.892578 110.412109 L 13.729980 110.412109 L 13.729980 111.335938 Z " fill="rgb(0, 0, 0)" fill-opacity="1.000000" />
<path d="M 13.892578 111.335938 L 13.892578 110.412109 L 20.729980 110.412109 L 20.729980 111.335938 Z " fill="rgb(0, 0, 0)" fill-opacity="1.000000" />
<path d="M 20.892578 111.335938 L 20.892578 110.412109 L 27.729980 110.412109 L 27.729980 111.335938 Z " fill="rgb(0, 0, 0)" fill-opacity="1.000000" />
<path d="M 27.892578 111.335938 L 27.892578 110.412109 L 34.729980 110.412109 L 34.729980 111.335938 Z " fill="rgb(0, 0, 0)" fill-opacity="1.000000" />
<path d="M 34.892578 111.335938 L 34.892578 110.412109 L 41.729980 110.412109 L 41.729980 111.335938 Z " fill="rgb(0, 0, 0)" fill-opacity="1.000000" />
<path d="M 41.892578 111.335938 L 41.892578 110.412109 L 48.729980 110.412109 L 48.729980 111.335938 Z " fill="rgb(0, 0, 0)" fill-opacity="1.000000" />
<path d="M 48.892578 111.335938 L 48.892578 110.412109 L 55.729980 110.412109 L 55.729980 111.335938 Z " fill="rgb(0, 0, 0)" fill-opacity="1.000000" />
<path d="M 55.892578 111.335938 L 55.892578 110.412109 L 62.729980 110.412109 L 62.729980 111.335938 Z " fill="rgb(0, 0, 0)" fill-opacity="1.000000" />
<path d="M 62.892578 111.335938 L 62.892578 110.412109 L 69.729980 110.412109 L 69.729980 111.335938 Z " fill="rgb(0, 0, 0)" fill-opacity="1.000000" />
<path d="M 69.892578 111.335938 L 69.892578 110.412109 L 76.729980 110.412109 L 76.729980 111.335938 Z " fill="rgb(0, 0, 0)" fill-opacity="1.000000" />
<path d="M 76.892578 111.335938 L 76.892578 110.412109 L 83.729980 110.412109 L 83.729980 111.335938 Z " fill="rgb(0, 0, 0)" fill-opacity="1.000000" />
<path d="M 83.892578 111.335938 L 83.892578 110.412109 L 90.729980 110.412109 L 90.729980 111.335938 Z " fill="rgb(0, 0, 0)" fill-opacity="1.000000" />
<path d="M 90.892578 111.335938 L 90.892578 110.412109 L 97.729980 110.412109 L 97.729980 111.335938 Z " fill="rgb(0, 0, 0)" fill-opacity="1.000000" />
<path d="M 97.892578 111.335938 L 97.892578 110.412109 L 104.729980 110.412109 L 104.729980 111.335938 Z " fill="rgb(0, 0, 0)" fill-opacity="1.000000" />
<path d="M 104.892578 111.335938 L 104.892578 110.412109 L 111.729980 110.412109 L 111.729980 111.335938 Z " fill="rgb(0, 0, 0)" fill-opacity="1.000000" />
<path d="M 111.892578 111.335938 L 111.892578 110.412109 L 118.729980 110.412109 L 118.729980 111.335938 Z " fill="rgb(0, 0, 0)" fill-opacity="1.000000" />
<path d="M 118.892578 111.335938 L 118.892578 110.412109 L 125.729980 110.412109 L 125.729980 111.335938 Z " fill="rgb(0, 0, 0)" fill-opacity="1.000000" />
<path d="M 125.892578 111.335938 L 125.892578 110.412109 L 132.729980 110.412109 L 132.729980 111.335938 Z " fill="rgb(0, 0, 0)" fill-opacity="1.000000" />
<path d="M 132.892578 111.335938 L 132.892578 110.412109 L 139.729980 110.412109 L 139.729980 111.335938 Z " fill="rgb(0, 0, 0)" fill-opacity="1.000000" />
<path d="M 139.892578 111.335938 L 139.892578 110.412109 L 146.729980 110.412109 L 146.729980 111.335938 Z " fill="rgb(0, 0, 0)" fill-opacity="1.000000" />
<path d="M 146.892578 111.335938 L 146.892578 110.412109 L 153.729980 110.412109 L 153.729980 111.335938 Z " fill="rgb(0, 0, 0)" fill-opacity="1.000000" />
<path d="M 153.892578 111.335938 L 153.892578 110.412109 L 160.729980 110.412109 L 160.729980 111.335938 Z " fill="rgb(0, 0, 0)" fill-opacity="1.000000" />
<path d="M 160.892578 111.335938 L 160.892578 110.412109 L 167.729980 110.412109 L 167.729980 111.335938 Z " fill="rgb(0, 0, 0)" fill-opacity="1.000000" />
<path d="M 167.892578 111.335938 L 167.892578 110.412109 L 170.878906 110.412109 L 170.878906 103.300781 L 171.738281 103.300781 L 171.738281 111.335938 Z " fill="rgb(0, 0, 0)" fill-opacity="1.000000" />
<path d="M 219.878906 117.319336 L 219.878906 103.300781 L 220.738281 103.300781 L 220.738281 117.319336 Z " fill="rgb(0, 0, 0)" fill-opacity="1.000000" />
<path d="M 268.878906 117.319336 L 268.878906 110.412109 L 272.729980 110.412109 L 272.729980 111.335938 L 269.738281 111.335938 L 269.738281 117.319336 Z " fill="rgb(0, 0, 0)" fill-opacity="1.000000" />
<path d="M 272.892578 111.335938 L 272.892578 110.412109 L 279.729980 110.412109 L 279.729980 111.335938 Z " fill="rgb(0, 0, 0)" fill-opacity="1.000000" />
<path d="M 279.892578 111.335938 L 279.892578 110.412109 L 286.729980 110.412109 L 286.729980 111.335938 Z " fill="rgb(0, 0, 0)" fill-opacity="1.000000" />
<path d="M 286.892578 111.335938 L 286.892578 110.412109 L 293.729980 110.412109 L 293.729980 111.335938 Z " fill="rgb(0, 0, 0)" fill-opacity="1.000000" />
<path d="M 293.892578 111.335938 L 293.892578 110.412109 L 300.729980 110.412109 L 300.729980 111.335938 Z " fill="rgb(0, 0, 0)" fill-opacity="1.000000" />
<path d="M 300.892578 111.335938 L 300.892578 110.412109 L 307.729980 110.412109 L 307.729980 111.335938 Z " fill="rgb(0, 0, 0)" fill-opacity="1.000000" />
<path d="M 307.892578 111.335938 L 307.892578 110.412109 L 314.729980 110.412109 L 314.729980 111.335938 Z " fill="rgb(0, 0, 0)" fill-opacity="1.000000" />
<path d="M 314.892578 111.335938 L 314.892578 110.412109 L 321.729980 110.412109 L 321.729980 111.335938 Z " fill="rgb(0, 0, 0)" fill-opacity="1.000000" />
<path d="M 321.892578 111.335938 L 321.892578 110.412109 L 328.729980 110.412109 L 328.729980 111.335938 Z " fill="rgb(0, 0, 0)" fill-opacity="1.000000" />
<path d="M 328.892578 111.335938 L 328.892578 110.412109 L 335.729980 110.412109 L 335.729980 111.335938 Z " fill="rgb(0, 0, 0)" fill-opacity="1.000000" />
<path d="M 335.892578 111.335938 L 335.892578 110.412109 L 342.729980 110.412109 L 342.729980 111.335938 Z " fill="rgb(0, 0, 0)" fill-opacity="1.000000" />
<path d="M 342.892578 111.335938 L 342.892578 110.412109 L 349.729980 110.412109 L 349.729980 111.335938 Z " fill="rgb(0, 0, 0)" fill-opacity="1.000000" />
<path d="M 349.892578 111.335938 L 349.892578 110.412109 L 356.729980 110.412109 L 356.729980 111.335938 Z " fill="rgb(0, 0, 0)" fill-opacity="1.000000" />
<path d="M 356.892578 111.335938 L 356.892578 110.412109 L 363.729980 110.412109 L 363.729980 111.335938 Z " fill="rgb(0, 0, 0)" fill-opacity="1.000000" />
<path d="M 363.892578 111.335938 L 363.892578 110.412109 L 370.729980 110.412109 L 370.729980 111.335938 Z " fill="rgb(0, 0, 0)" fill-opacity="1.000000" />
<path d="M 370.892578 111.335938 L 370.892578 110.412109 L 377.729980 110.412109 L 377.729980 111.335938 Z " fill="rgb(0, 0, 0)" fill-opacity="1.000000" />
<path d="M 377.892578 111.335938 L 377.892578 110.412109 L 384.729980 110.412109 L 384.729980 111.335938 Z " fill="rgb(0, 0, 0)" fill-opacity="1.000000" />
<path d="M 384.892578 111.335938 L 384.892578 110.412109 L 391.729980 110.412109 L 391.729980 111.335938 Z " fill="rgb(0, 0, 0)" fill-opacity="1.000000" />
<path d="M 391.892578 111.335938 L 391.892578 110.412109 L 398.729980 110.412109 L 398.729980 111.335938 Z " fill="rgb(0, 0, 0)" fill-opacity="1.000000" />
<path d="M 401.878906 117.319336 L 401.878906 111.335938 L 398.892578 111.335938 L 398.892578 110.412109 L 402.738281 110.412109 L 402.738281 117.319336 Z " fill="rgb(0, 0, 0)" fill-opacity="1.000000" />
<path d="M 31.308594 93.937012 L 30.164551 98.040527 L 32.452637 98.040527 Z M 30.653320 92.980957 L 31.969238 92.980957 L 34.423828 101.000000 L 33.301270 101.000000 L 32.710449 98.910645 L 29.901367 98.910645 L 29.321289 101.000000 L 28.198730 101.000000 Z " fill="rgb(0, 0, 0)" fill-opacity="1.000000" />
<path d="M 37.014160 100.242676 L 37.014160 103.288086 L 36.020508 103.288086 L 36.020508 94.984375 L 37.014160 94.984375 L 37.014160 95.752441 Q 37.261230 95.306641 37.672119 95.072998 Q 38.083008 94.839355 38.620117 94.839355 Q 39.710449 94.839355 40.330811 95.682617 Q 40.951172 96.525879 40.951172 98.019043 Q 40.951172 99.485352 40.328125 100.320557 Q 39.705078 101.155762 38.620117 101.155762 Q 38.072266 101.155762 37.661377 100.922119 Q 37.250488 100.688477 37.014160 100.242676 Z M 39.914551 97.997559 Q 39.914551 96.848145 39.552002 96.262695 Q 39.189453 95.677246 38.475098 95.677246 Q 37.755371 95.677246 37.384766 96.265381 Q 37.014160 96.853516 37.014160 97.997559 Q 37.014160 99.136230 37.384766 99.727051 Q 37.755371 100.317871 38.475098 100.317871 Q 39.189453 100.317871 39.552002 99.732422 Q 39.914551 99.146973 39.914551 97.997559 Z " fill="rgb(0, 0, 0)" fill-opacity="1.000000" />
<path d="M 44.014160 100.242676 L 44.014160 103.288086 L 43.020508 103.288086 L 43.020508 94.984375 L 44.014160 94.984375 L 44.014160 95.752441 Q 44.261230 95.306641 44.672119 95.072998 Q 45.083008 94.839355 45.620117 94.839355 Q 46.710449 94.839355 47.330811 95.682617 Q 47.951172 96.525879 47.951172 98.019043 Q 47.951172 99.485352 47.328125 100.320557 Q 46.705078 101.155762 45.620117 101.155762 Q 45.072266 101.155762 44.661377 100.922119 Q 44.250488 100.688477 44.014160 100.242676 Z M 46.914551 97.997559 Q 46.914551 96.848145 46.552002 96.262695 Q 46.189453 95.677246 45.475098 95.677246 Q 44.755371 95.677246 44.384766 96.265381 Q 44.014160 96.853516 44.014160 97.997559 Q 44.014160 99.136230 44.384766 99.727051 Q 44.755371 100.317871 45.475098 100.317871 Q 46.189453 100.317871 46.552002 99.732422 Q 46.914551 99.146973 46.914551 97.997559 Z " fill="rgb(0, 0, 0)" fill-opacity="1.000000" />
<path d="M 52.861816 98.824707 Q 52.861816 99.490723 53.106201 99.829102 Q 53.350586 100.167480 53.828613 100.167480 L 54.983398 100.167480 L 54.983398 101.000000 L 53.731934 101.000000 Q 52.845703 101.000000 52.359619 100.433350 Q 51.873535 99.866699 51.873535 98.824707 L 51.873535 93.383789 L 50.289062 93.383789 L 50.289062 92.610352 L 52.861816 92.610352 Z " fill="rgb(0, 0, 0)" fill-opacity="1.000000" />
<path d="M 57.697266 95.005859 L 60.227051 95.005859 L 60.227051 100.231934 L 62.187500 100.231934 L 62.187500 101.000000 L 57.278320 101.000000 L 57.278320 100.231934 L 59.238770 100.231934 L 59.238770 95.773926 L 57.697266 95.773926 Z M 59.238770 92.669434 L 60.227051 92.669434 L 60.227051 93.915527 L 59.238770 93.915527 Z " fill="rgb(0, 0, 0)" fill-opacity="1.000000" />
<path d="M 68.698730 100.693848 Q 68.301270 100.924805 67.879639 101.040283 Q 67.458008 101.155762 67.017578 101.155762 Q 65.621094 101.155762 64.834229 100.317871 Q 64.047363 99.479980 64.047363 97.997559 Q 64.047363 96.515137 64.834229 95.677246 Q 65.621094 94.839355 67.017578 94.839355 Q 67.452637 94.839355 67.866211 94.952148 Q 68.279785 95.064941 68.698730 95.301270 L 68.698730 96.337891 Q 68.306641 95.988770 67.911865 95.833008 Q 67.517090 95.677246 67.017578 95.677246 Q 66.088379 95.677246 65.588867 96.278809 Q 65.089355 96.880371 65.089355 97.997559 Q 65.089355 99.109375 65.591553 99.713623 Q 66.093750 100.317871 67.017578 100.317871 Q 67.533203 100.317871 67.941406 100.159424 Q 68.349609 100.000977 68.698730 99.667969 Z " fill="rgb(0, 0, 0)" fill-opacity="1.000000" />
<path d="M 73.770508 97.976074 L 73.442871 97.976074 Q 72.578125 97.976074 72.140381 98.279541 Q 71.702637 98.583008 71.702637 99.184570 Q 71.702637 99.727051 72.030273 100.027832 Q 72.357910 100.328613 72.937988 100.328613 Q 73.754395 100.328613 74.221680 99.761963 Q 74.688965 99.195312 74.694336 98.196289 L 74.694336 97.976074 Z M 75.687988 97.567871 L 75.687988 101.000000 L 74.694336 101.000000 L 74.694336 100.108398 Q 74.377441 100.645508 73.896729 100.900635 Q 73.416016 101.155762 72.728516 101.155762 Q 71.810059 101.155762 71.262207 100.637451 Q 70.714355 100.119141 70.714355 99.249023 Q 70.714355 98.244629 71.388428 97.723633 Q 72.062500 97.202637 73.367676 97.202637 L 74.694336 97.202637 L 74.694336 97.046875 Q 74.688965 96.327148 74.329102 96.002197 Q 73.969238 95.677246 73.179688 95.677246 Q 72.674805 95.677246 72.159180 95.822266 Q 71.643555 95.967285 71.154785 96.246582 L 71.154785 95.258301 Q 71.702637 95.048828 72.204834 94.944092 Q 72.707031 94.839355 73.179688 94.839355 Q 73.926270 94.839355 74.455322 95.059570 Q 74.984375 95.279785 75.312012 95.720215 Q 75.516113 95.988770 75.602051 96.383545 Q 75.687988 96.778320 75.687988 97.567871 Z " fill="rgb(0, 0, 0)" fill-opacity="1.000000" />
<path d="M 80.297852 93.276367 L 80.297852 94.984375 L 82.542969 94.984375 L 82.542969 95.752441 L 80.297852 95.752441 L 80.297852 99.018066 Q 80.297852 99.684082 80.550293 99.947266 Q 80.802734 100.210449 81.431152 100.210449 L 82.542969 100.210449 L 82.542969 101.000000 L 81.334473 101.000000 Q 80.222656 101.000000 79.766113 100.554199 Q 79.309570 100.108398 79.309570 99.018066 L 79.309570 95.752441 L 77.703613 95.752441 L 77.703613 94.984375 L 79.309570 94.984375 L 79.309570 93.276367 Z " fill="rgb(0, 0, 0)" fill-opacity="1.000000" />
<path d="M 85.697266 95.005859 L 88.227051 95.005859 L 88.227051 100.231934 L 90.187500 100.231934 L 90.187500 101.000000 L 85.278320 101.000000 L 85.278320 100.231934 L 87.238770 100.231934 L 87.238770 95.773926 L 85.697266 95.773926 Z M 87.238770 92.669434 L 88.227051 92.669434 L 88.227051 93.915527 L 87.238770 93.915527 Z " fill="rgb(0, 0, 0)" fill-opacity="1.000000" />
<path d="M 94.308594 95.677246 Q 93.556641 95.677246 93.169922 96.262695 Q 92.783203 96.848145 92.783203 97.997559 Q 92.783203 99.141602 93.169922 99.729736 Q 93.556641 100.317871 94.308594 100.317871 Q 95.065918 100.317871 95.452637 99.729736 Q 95.839355 99.141602 95.839355 97.997559 Q 95.839355 96.848145 95.452637 96.262695 Q 95.065918 95.677246 94.308594 95.677246 Z M 94.308594 94.839355 Q 95.560059 94.839355 96.223389 95.650391 Q 96.886719 96.461426 96.886719 97.997559 Q 96.886719 99.539062 96.226074 100.347412 Q 95.565430 101.155762 94.308594 101.155762 Q 93.057129 101.155762 92.396484 100.347412 Q 91.735840 99.539062 91.735840 97.997559 Q 91.735840 96.461426 92.396484 95.650391 Q 93.057129 94.839355 94.308594 94.839355 Z " fill="rgb(0, 0, 0)" fill-opacity="1.000000" />
<path d="M 103.645020 97.272461 L 103.645020 101.000000 L 102.651367 101.000000 L 102.651367 97.272461 Q 102.651367 96.461426 102.366699 96.080078 Q 102.082031 95.698730 101.475098 95.698730 Q 100.782227 95.698730 100.408936 96.190186 Q 100.035645 96.681641 100.035645 97.600098 L 100.035645 101.000000 L 99.047363 101.000000 L 99.047363 94.984375 L 100.035645 94.984375 L 100.035645 95.886719 Q 100.298828 95.371094 100.750000 95.105225 Q 101.201172 94.839355 101.818848 94.839355 Q 102.737305 94.839355 103.191162 95.443604 Q 103.645020 96.047852 103.645020 97.272461 Z " fill="rgb(0, 0, 0)" fill-opacity="1.000000" />
<path d="M 109.082031 97.213379 Q 109.500977 97.320801 109.796387 97.618896 Q 110.091797 97.916992 110.532227 98.808594 L 111.622559 101.000000 L 110.457031 101.000000 L 109.500977 98.975098 Q 109.087402 98.110352 108.757080 97.860596 Q 108.426758 97.610840 107.895020 97.610840 L 106.858398 97.610840 L 106.858398 101.000000 L 105.768066 101.000000 L 105.768066 92.980957 L 108.002441 92.980957 Q 109.323730 92.980957 110.027344 93.577148 Q 110.730957 94.173340 110.730957 95.301270 Q 110.730957 96.096191 110.298584 96.598389 Q 109.866211 97.100586 109.082031 97.213379 Z M 106.858398 93.872559 L 106.858398 96.719238 L 108.045410 96.719238 Q 108.824219 96.719238 109.205566 96.370117 Q 109.586914 96.020996 109.586914 95.301270 Q 109.586914 94.608398 109.181396 94.240479 Q 108.775879 93.872559 108.002441 93.872559 Z " fill="rgb(0, 0, 0)" fill-opacity="1.000000" />
<path d="M 118.015625 97.498047 L 118.015625 97.981445 L 113.734863 97.981445 L 113.734863 98.013672 Q 113.691895 99.243652 114.204834 99.780762 Q 114.717773 100.317871 115.652344 100.317871 Q 116.125000 100.317871 116.640625 100.167480 Q 117.156250 100.017090 117.741699 99.710938 L 117.741699 100.693848 Q 117.177734 100.924805 116.654053 101.040283 Q 116.130371 101.155762 115.641602 101.155762 Q 114.239746 101.155762 113.450195 100.315186 Q 112.660645 99.474609 112.660645 97.997559 Q 112.660645 96.558105 113.434082 95.698730 Q 114.207520 94.839355 115.496582 94.839355 Q 116.645996 94.839355 117.309326 95.618164 Q 117.972656 96.396973 118.015625 97.498047 Z M 117.027344 97.208008 Q 116.962891 96.584961 116.573486 96.131104 Q 116.184082 95.677246 115.453613 95.677246 Q 114.739258 95.677246 114.277344 96.149902 Q 113.815430 96.622559 113.772461 97.213379 Z " fill="rgb(0, 0, 0)" fill-opacity="1.000000" />
<path d="M 124.698730 100.693848 Q 124.301270 100.924805 123.879639 101.040283 Q 123.458008 101.155762 123.017578 101.155762 Q 121.621094 101.155762 120.834229 100.317871 Q 120.047363 99.479980 120.047363 97.997559 Q 120.047363 96.515137 120.834229 95.677246 Q 121.621094 94.839355 123.017578 94.839355 Q 123.452637 94.839355 123.866211 94.952148 Q 124.279785 95.064941 124.698730 95.301270 L 124.698730 96.337891 Q 124.306641 95.988770 123.911865 95.833008 Q 123.517090 95.677246 123.017578 95.677246 Q 122.088379 95.677246 121.588867 96.278809 Q 121.089355 96.880371 121.089355 97.997559 Q 121.089355 99.109375 121.591553 99.713623 Q 122.093750 100.317871 123.017578 100.317871 Q 123.533203 100.317871 123.941406 100.159424 Q 124.349609 100.000977 124.698730 99.667969 Z " fill="rgb(0, 0, 0)" fill-opacity="1.000000" />
<path d="M 129.308594 95.677246 Q 128.556641 95.677246 128.169922 96.262695 Q 127.783203 96.848145 127.783203 97.997559 Q 127.783203 99.141602 128.169922 99.729736 Q 128.556641 100.317871 129.308594 100.317871 Q 130.065918 100.317871 130.452637 99.729736 Q 130.839355 99.141602 130.839355 97.997559 Q 130.839355 96.848145 130.452637 96.262695 Q 130.065918 95.677246 129.308594 95.677246 Z M 129.308594 94.839355 Q 130.560059 94.839355 131.223389 95.650391 Q 131.886719 96.461426 131.886719 97.997559 Q 131.886719 99.539062 131.226074 100.347412 Q 130.565430 101.155762 129.308594 101.155762 Q 128.057129 101.155762 127.396484 100.347412 Q 126.735840 99.539062 126.735840 97.997559 Q 126.735840 96.461426 127.396484 95.650391 Q 128.057129 94.839355 129.308594 94.839355 Z " fill="rgb(0, 0, 0)" fill-opacity="1.000000" />
<path d="M 139.203613 96.225098 Q 138.886719 95.978027 138.559082 95.865234 Q 138.231445 95.752441 137.839355 95.752441 Q 136.915527 95.752441 136.426758 96.332520 Q 135.937988 96.912598 135.937988 98.008301 L 135.937988 101.000000 L 134.944336 101.000000 L 134.944336 94.984375 L 135.937988 94.984375 L 135.937988 96.160645 Q 136.185059 95.521484 136.697998 95.180420 Q 137.210938 94.839355 137.914551 94.839355 Q 138.279785 94.839355 138.596680 94.930664 Q 138.913574 95.021973 139.203613 95.215332 Z " fill="rgb(0, 0, 0)" fill-opacity="1.000000" />
<path d="M 144.608398 95.752441 L 144.608398 92.642578 L 145.596680 92.642578 L 145.596680 101.000000 L 144.608398 101.000000 L 144.608398 100.242676 Q 144.361328 100.688477 143.950439 100.922119 Q 143.539551 101.155762 143.002441 101.155762 Q 141.912109 101.155762 141.286377 100.309814 Q 140.660645 99.463867 140.660645 97.976074 Q 140.660645 96.509766 141.289062 95.674561 Q 141.917480 94.839355 143.002441 94.839355 Q 143.544922 94.839355 143.958496 95.072998 Q 144.372070 95.306641 144.608398 95.752441 Z M 141.702637 97.997559 Q 141.702637 99.146973 142.067871 99.732422 Q 142.433105 100.317871 143.147461 100.317871 Q 143.861816 100.317871 144.235107 99.727051 Q 144.608398 99.136230 144.608398 97.997559 Q 144.608398 96.853516 144.235107 96.265381 Q 143.861816 95.677246 143.147461 95.677246 Q 142.433105 95.677246 142.067871 96.262695 Q 141.702637 96.848145 141.702637 97.997559 Z " fill="rgb(0, 0, 0)" fill-opacity="1.000000" />
<path d="M 170.878906 104.319336 L 170.878906 90.300781 L 171.738281 90.300781 L 171.738281 104.319336 Z " fill="rgb(0, 0, 0)" fill-opacity="1.000000" />
<path d="M 174.892578 98.335938 L 174.892578 97.412109 L 181.729980 97.412109 L 181.729980 98.335938 Z " fill="rgb(0, 0, 0)" fill-opacity="1.000000" />
<path d="M 181.892578 98.335938 L 181.892578 97.412109 L 188.729980 97.412109 L 188.729980 98.335938 Z " fill="rgb(0, 0, 0)" fill-opacity="1.000000" />
<path d="M 188.892578 98.335938 L 188.892578 97.412109 L 195.729980 97.412109 L 195.729980 98.335938 Z " fill="rgb(0, 0, 0)" fill-opacity="1.000000" />
<path d="M 195.892578 98.335938 L 195.892578 97.412109 L 202.729980 97.412109 L 202.729980 98.335938 Z " fill="rgb(0, 0, 0)" fill-opacity="1.000000" />
<path d="M 202.892578 98.335938 L 202.892578 97.412109 L 209.729980 97.412109 L 209.729980 98.335938 Z " fill="rgb(0, 0, 0)" fill-opacity="1.000000" />
<path d="M 209.892578 98.335938 L 209.892578 97.412109 L 216.729980 97.412109 L 216.729980 98.335938 Z " fill="rgb(0, 0, 0)" fill-opacity="1.000000" />
<path d="M 219.878906 104.319336 L 219.878906 98.335938 L 216.892578 98.335938 L 216.892578 97.412109 L 219.878906 97.412109 L 219.878906 90.300781 L 220.738281 90.300781 L 220.738281 104.319336 Z " fill="rgb(0, 0, 0)" fill-opacity="1.000000" />
<path d="M 6.892578 85.335938 L 6.892578 84.412109 L 13.729980 84.412109 L 13.729980 85.335938 Z " fill="rgb(0, 0, 0)" fill-opacity="1.000000" />
<path d="M 13.892578 85.335938 L 13.892578 84.412109 L 20.729980 84.412109 L 20.729980 85.335938 Z " fill="rgb(0, 0, 0)" fill-opacity="1.000000" />
<path d="M 20.892578 85.335938 L 20.892578 84.412109 L 27.729980 84.412109 L 27.729980 85.335938 Z " fill="rgb(0, 0, 0)" fill-opacity="1.000000" />
<path d="M 27.892578 85.335938 L 27.892578 84.412109 L 34.729980 84.412109 L 34.729980 85.335938 Z " fill="rgb(0, 0, 0)" fill-opacity="1.000000" />
<path d="M 34.892578 85.335938 L 34.892578 84.412109 L 41.729980 84.412109 L 41.729980 85.335938 Z " fill="rgb(0, 0, 0)" fill-opacity="1.000000" />
<path d="M 41.892578 85.335938 L 41.892578 84.412109 L 48.729980 84.412109 L 48.729980 85.335938 Z " fill="rgb(0, 0, 0)" fill-opacity="1.000000" />
<path d="M 48.892578 85.335938 L 48.892578 84.412109 L 55.729980 84.412109 L 55.729980 85.335938 Z " fill="rgb(0, 0, 0)" fill-opacity="1.000000" />
<path d="M 55.892578 85.335938 L 55.892578 84.412109 L 62.729980 84.412109 L 62.729980 85.335938 Z " fill="rgb(0, 0, 0)" fill-opacity="1.000000" />
<path d="M 62.892578 85.335938 L 62.892578 84.412109 L 69.729980 84.412109 L 69.729980 85.335938 Z " fill="rgb(0, 0, 0)" fill-opacity="1.000000" />
<path d="M 69.892578 85.335938 L 69.892578 84.412109 L 76.729980 84.412109 L 76.729980 85.335938 Z " fill="rgb(0, 0, 0)" fill-opacity="1.000000" />
<path d="M 76.892578 85.335938 L 76.892578 84.412109 L 83.729980 84.412109 L 83.729980 85.335938 Z " fill="rgb(0, 0, 0)" fill-opacity="1.000000" />
<path d="M 83.892578 85.335938 L 83.892578 84.412109 L 90.729980 84.412109 L 90.729980 85.335938 Z " fill="rgb(0, 0, 0)" fill-opacity="1.000000" />
<path d="M 90.892578 85.335938 L 90.892578 84.412109 L 97.729980 84.412109 L 97.729980 85.335938 Z " fill="rgb(0, 0, 0)" fill-opacity="1.000000" />
<path d="M 97.892578 85.335938 L 97.892578 84.412109 L 104.729980 84.412109 L 104.729980 85.335938 Z " fill="rgb(0, 0, 0)" fill-opacity="1.000000" />
<path d="M 104.892578 85.335938 L 104.892578 84.412109 L 111.729980 84.412109 L 111.729980 85.335938 Z " fill="rgb(0, 0, 0)" fill-opacity="1.000000" />
<path d="M 111.892578 85.335938 L 111.892578 84.412109 L 118.729980 84.412109 L 118.729980 85.335938 Z " fill="rgb(0, 0, 0)" fill-opacity="1.000000" />
<path d="M 118.892578 85.335938 L 118.892578 84.412109 L 125.729980 84.412109 L 125.729980 85.335938 Z " fill="rgb(0, 0, 0)" fill-opacity="1.000000" />
<path d="M 125.892578 85.335938 L 125.892578 84.412109 L 132.729980 84.412109 L 132.729980 85.335938 Z " fill="rgb(0, 0, 0)" fill-opacity="1.000000" />
<path d="M 132.892578 85.335938 L 132.892578 84.412109 L 139.729980 84.412109 L 139.729980 85.335938 Z " fill="rgb(0, 0, 0)" fill-opacity="1.000000" />
<path d="M 139.892578 85.335938 L 139.892578 84.412109 L 146.729980 84.412109 L 146.729980 85.335938 Z " fill="rgb(0, 0, 0)" fill-opacity="1.000000" />
<path d="M 146.892578 85.335938 L 146.892578 84.412109 L 153.729980 84.412109 L 153.729980 85.335938 Z " fill="rgb(0, 0, 0)" fill-opacity="1.000000" />
<path d="M 153.892578 85.335938 L 153.892578 84.412109 L 160.729980 84.412109 L 160.729980 85.335938 Z " fill="rgb(0, 0, 0)" fill-opacity="1.000000" />
<path d="M 160.892578 85.335938 L 160.892578 84.412109 L 167.729980 84.412109 L 167.729980 85.335938 Z " fill="rgb(0, 0, 0)" fill-opacity="1.000000" />
<path d="M 170.878906 91.319336 L 170.878906 85.335938 L 167.892578 85.335938 L 167.892578 84.412109 L 171.738281 84.412109 L 171.738281 91.319336 Z " fill="rgb(0, 0, 0)" fill-opacity="1.000000" />
<path d="M 219.878906 91.319336 L 219.878906 77.300781 L 220.738281 77.300781 L 220.738281 91.319336 Z " fill="rgb(0, 0, 0)" fill-opacity="1.000000" />
<path d="M 268.878906 85.335938 L 268.878906 77.300781 L 269.738281 77.300781 L 269.738281 84.412109 L 272.729980 84.412109 L 272.729980 85.335938 Z " fill="rgb(0, 0, 0)" fill-opacity="1.000000" />
<path d="M 272.892578 85.335938 L 272.892578 84.412109 L 279.729980 84.412109 L 279.729980 85.335938 Z " fill="rgb(0, 0, 0)" fill-opacity="1.000000" />
<path d="M 279.892578 85.335938 L 279.892578 84.412109 L 286.729980 84.412109 L 286.729980 85.335938 Z " fill="rgb(0, 0, 0)" fill-opacity="1.000000" />
<path d="M 286.892578 85.335938 L 286.892578 84.412109 L 293.729980 84.412109 L 293.729980 85.335938 Z " fill="rgb(0, 0, 0)" fill-opacity="1.000000" />
<path d="M 293.892578 85.335938 L 293.892578 84.412109 L 300.729980 84.412109 L 300.729980 85.335938 Z " fill="rgb(0, 0, 0)" fill-opacity="1.000000" />
<path d="M 300.892578 85.335938 L 300.892578 84.412109 L 307.729980 84.412109 L 307.729980 85.335938 Z " fill="rgb(0, 0, 0)" fill-opacity="1.000000" />
<path d="M 307.892578 85.335938 L 307.892578 84.412109 L 314.729980 84.412109 L 314.729980 85.335938 Z " fill="rgb(0, 0, 0)" fill-opacity="1.000000" />
<path d="M 314.892578 85.335938 L 314.892578 84.412109 L 321.729980 84.412109 L 321.729980 85.335938 Z " fill="rgb(0, 0, 0)" fill-opacity="1.000000" />
<path d="M 321.892578 85.335938 L 321.892578 84.412109 L 328.729980 84.412109 L 328.729980 85.335938 Z " fill="rgb(0, 0, 0)" fill-opacity="1.000000" />
<path d="M 328.892578 85.335938 L 328.892578 84.412109 L 335.729980 84.412109 L 335.729980 85.335938 Z " fill="rgb(0, 0, 0)" fill-opacity="1.000000" />
<path d="M 335.892578 85.335938 L 335.892578 84.412109 L 342.729980 84.412109 L 342.729980 85.335938 Z " fill="rgb(0, 0, 0)" fill-opacity="1.000000" />
<path d="M 342.892578 85.335938 L 342.892578 84.412109 L 349.729980 84.412109 L 349.729980 85.335938 Z " fill="rgb(0, 0, 0)" fill-opacity="1.000000" />
<path d="M 349.892578 85.335938 L 349.892578 84.412109 L 356.729980 84.412109 L 356.729980 85.335938 Z " fill="rgb(0, 0, 0)" fill-opacity="1.000000" />
<path d="M 356.892578 85.335938 L 356.892578 84.412109 L 363.729980 84.412109 L 363.729980 85.335938 Z " fill="rgb(0, 0, 0)" fill-opacity="1.000000" />
<path d="M 363.892578 85.335938 L 363.892578 84.412109 L 370.729980 84.412109 L 370.729980 85.335938 Z " fill="rgb(0, 0, 0)" fill-opacity="1.000000" />
<path d="M 370.892578 85.335938 L 370.892578 84.412109 L 377.729980 84.412109 L 377.729980 85.335938 Z " fill="rgb(0, 0, 0)" fill-opacity="1.000000" />
<path d="M 377.892578 85.335938 L 377.892578 84.412109 L 384.729980 84.412109 L 384.729980 85.335938 Z " fill="rgb(0, 0, 0)" fill-opacity="1.000000" />
<path d="M 384.892578 85.335938 L 384.892578 84.412109 L 391.729980 84.412109 L 391.729980 85.335938 Z " fill="rgb(0, 0, 0)" fill-opacity="1.000000" />
<path d="M 391.892578 85.335938 L 391.892578 84.412109 L 398.729980 84.412109 L 398.729980 85.335938 Z " fill="rgb(0, 0, 0)" fill-opacity="1.000000" />
<path d="M 398.892578 85.335938 L 398.892578 84.412109 L 401.878906 84.412109 L 401.878906 77.300781 L 402.738281 77.300781 L 402.738281 85.335938 Z " fill="rgb(0, 0, 0)" fill-opacity="1.000000" />
<path d="M 219.878906 26.319336 L 219.878906 19.412109 L 223.729980 19.412109 L 223.729980 20.335938 L 220.738281 20.335938 L 220.738281 26.319336 Z " fill="rgb(0, 0, 0)" fill-opacity="1.000000" />
<path d="M 219.878906 39.319336 L 219.878906 25.300781 L 220.738281 25.300781 L 220.738281 39.319336 Z " fill="rgb(0, 0, 0)" fill-opacity="1.000000" />
<path d="M 219.878906 52.319336 L 219.878906 38.300781 L 220.738281 38.300781 L 220.738281 52.319336 Z " fill="rgb(0, 0, 0)" fill-opacity="1.000000" />
<path d="M 219.878906 65.319336 L 219.878906 51.300781 L 220.738281 51.300781 L 220.738281 65.319336 Z " fill="rgb(0, 0, 0)" fill-opacity="1.000000" />
<path d="M 219.878906 78.319336 L 219.878906 64.300781 L 220.738281 64.300781 L 220.738281 71.412109 L 223.729980 71.412109 L 223.729980 72.335938 L 220.738281 72.335938 L 220.738281 78.319336 Z " fill="rgb(0, 0, 0)" fill-opacity="1.000000" />
<path d="M 223.892578 72.335938 L 223.892578 71.412109 L 230.729980 71.412109 L 230.729980 72.335938 Z " fill="rgb(0, 0, 0)" fill-opacity="1.000000" />
<path d="M 230.892578 72.335938 L 230.892578 71.412109 L 237.729980 71.412109 L 237.729980 72.335938 Z " fill="rgb(0, 0, 0)" fill-opacity="1.000000" />
<path d="M 237.892578 72.335938 L 237.892578 71.412109 L 244.729980 71.412109 L 244.729980 72.335938 Z " fill="rgb(0, 0, 0)" fill-opacity="1.000000" />
<path d="M 244.892578 72.335938 L 244.892578 71.412109 L 251.729980 71.412109 L 251.729980 72.335938 Z " fill="rgb(0, 0, 0)" fill-opacity="1.000000" />
<path d="M 251.892578 72.335938 L 251.892578 71.412109 L 258.729980 71.412109 L 258.729980 72.335938 Z " fill="rgb(0, 0, 0)" fill-opacity="1.000000" />
<path d="M 259.032227 75.418945 L 259.032227 68.866211 L 265.590332 72.142578 Z " fill="rgb(0, 0, 0)" fill-opacity="1.000000" />
<path d="M 268.878906 78.319336 L 268.878906 64.300781 L 269.738281 64.300781 L 269.738281 78.319336 Z " fill="rgb(0, 0, 0)" fill-opacity="1.000000" />
<path d="M 316.058105 66.980957 L 320.816895 66.980957 L 320.816895 67.894043 L 317.143066 67.894043 L 317.143066 70.053223 L 320.655762 70.053223 L 320.655762 70.966309 L 317.143066 70.966309 L 317.143066 74.086914 L 320.918945 74.086914 L 320.918945 75.000000 L 316.058105 75.000000 Z " fill="rgb(0, 0, 0)" fill-opacity="1.000000" />
<path d="M 322.537109 68.984375 L 323.562988 68.984375 L 325.308594 74.033203 L 327.059570 68.984375 L 328.085449 68.984375 L 325.947754 75.000000 L 324.674805 75.000000 Z " fill="rgb(0, 0, 0)" fill-opacity="1.000000" />
<path d="M 335.015625 71.498047 L 335.015625 71.981445 L 330.734863 71.981445 L 330.734863 72.013672 Q 330.691895 73.243652 331.204834 73.780762 Q 331.717773 74.317871 332.652344 74.317871 Q 333.125000 74.317871 333.640625 74.167480 Q 334.156250 74.017090 334.741699 73.710938 L 334.741699 74.693848 Q 334.177734 74.924805 333.654053 75.040283 Q 333.130371 75.155762 332.641602 75.155762 Q 331.239746 75.155762 330.450195 74.315186 Q 329.660645 73.474609 329.660645 71.997559 Q 329.660645 70.558105 330.434082 69.698730 Q 331.207520 68.839355 332.496582 68.839355 Q 333.645996 68.839355 334.309326 69.618164 Q 334.972656 70.396973 335.015625 71.498047 Z M 334.027344 71.208008 Q 333.962891 70.584961 333.573486 70.131104 Q 333.184082 69.677246 332.453613 69.677246 Q 331.739258 69.677246 331.277344 70.149902 Q 330.815430 70.622559 330.772461 71.213379 Z " fill="rgb(0, 0, 0)" fill-opacity="1.000000" />
<path d="M 341.645020 71.272461 L 341.645020 75.000000 L 340.651367 75.000000 L 340.651367 71.272461 Q 340.651367 70.461426 340.366699 70.080078 Q 340.082031 69.698730 339.475098 69.698730 Q 338.782227 69.698730 338.408936 70.190186 Q 338.035645 70.681641 338.035645 71.600098 L 338.035645 75.000000 L 337.047363 75.000000 L 337.047363 68.984375 L 338.035645 68.984375 L 338.035645 69.886719 Q 338.298828 69.371094 338.750000 69.105225 Q 339.201172 68.839355 339.818848 68.839355 Q 340.737305 68.839355 341.191162 69.443604 Q 341.645020 70.047852 341.645020 71.272461 Z " fill="rgb(0, 0, 0)" fill-opacity="1.000000" />
<path d="M 346.297852 67.276367 L 346.297852 68.984375 L 348.542969 68.984375 L 348.542969 69.752441 L 346.297852 69.752441 L 346.297852 73.018066 Q 346.297852 73.684082 346.550293 73.947266 Q 346.802734 74.210449 347.431152 74.210449 L 348.542969 74.210449 L 348.542969 75.000000 L 347.334473 75.000000 Q 346.222656 75.000000 345.766113 74.554199 Q 345.309570 74.108398 345.309570 73.018066 L 345.309570 69.752441 L 343.703613 69.752441 L 343.703613 68.984375 L 345.309570 68.984375 L 345.309570 67.276367 Z " fill="rgb(0, 0, 0)" fill-opacity="1.000000" />
<path d="M 401.878906 78.319336 L 401.878906 64.300781 L 402.738281 64.300781 L 402.738281 78.319336 Z " fill="rgb(0, 0, 0)" fill-opacity="1.000000" />
<path d="M 418.204590 68.479492 Q 418.247559 68.479492 418.317383 68.549316 Q 418.392578 68.619141 418.467773 68.737305 Q 418.596680 68.511719 418.671875 68.511719 Q 418.736328 68.511719 418.849121 68.629883 Q 418.918945 68.705078 418.918945 68.796387 Q 418.918945 68.914551 418.822266 69.016602 Q 417.914551 69.999512 417.060547 71.181152 Q 417.415039 72.045898 418.038086 73.087891 Q 418.091797 73.179199 418.091797 73.227539 Q 418.091797 73.329590 417.957520 73.437012 L 417.817871 73.533691 Q 417.833984 73.587402 417.833984 73.673340 Q 417.833984 73.807617 417.742676 73.877441 Q 417.624512 73.952637 417.576172 73.952637 Q 417.463379 73.952637 417.372070 73.839844 Q 416.851074 73.168457 416.292480 72.260742 Q 415.540527 73.238281 414.573730 74.871094 Q 414.434082 75.107422 414.101074 75.107422 Q 413.945312 75.107422 413.923828 74.924805 Q 413.703613 74.801270 413.703613 74.532715 Q 413.703613 74.183594 413.751953 74.049316 Q 413.773438 73.990234 413.891602 73.807617 Q 414.783203 72.416504 415.776855 71.256348 Q 415.245117 69.988770 415.067871 69.306641 Q 415.030273 69.156250 415.030273 69.107910 Q 415.030273 69.048828 415.110840 68.936035 Q 415.191406 68.823242 415.261230 68.823242 Q 415.325684 68.823242 415.427734 68.946777 Q 415.465332 68.871582 415.524414 68.823242 Q 415.599609 68.753418 415.723145 68.753418 Q 415.862793 68.753418 415.905762 68.882324 Q 416.142090 69.618164 416.528809 70.278809 Q 417.146484 69.478516 418.038086 68.586914 Q 418.140137 68.479492 418.204590 68.479492 Z " fill="rgb(0, 0, 0)" fill-opacity="1.000000" />
<path d="M 268.878906 33.335938 L 268.878906 25.300781 L 269.738281 25.300781 L 269.738281 32.412109 L 272.729980 32.412109 L 272.729980 33.335938 Z " fill="rgb(0, 0, 0)" fill-opacity="1.000000" />
<path d="M 268.878906 65.319336 L 268.878906 58.412109 L 272.729980 58.412109 L 272.729980 59.335938 L 269.738281 59.335938 L 269.738281 65.319336 Z " fill="rgb(0, 0, 0)" fill-opacity="1.000000" />
<path d="M 272.892578 59.335938 L 272.892578 58.412109 L 279.729980 58.412109 L 279.729980 59.335938 Z " fill="rgb(0, 0, 0)" fill-opacity="1.000000" />
<path d="M 279.892578 59.335938 L 279.892578 58.412109 L 286.729980 58.412109 L 286.729980 59.335938 Z " fill="rgb(0, 0, 0)" fill-opacity="1.000000" />
<path d="M 286.892578 59.335938 L 286.892578 58.412109 L 293.729980 58.412109 L 293.729980 59.335938 Z " fill="rgb(0, 0, 0)" fill-opacity="1.000000" />
<path d="M 293.892578 59.335938 L 293.892578 58.412109 L 300.729980 58.412109 L 300.729980 59.335938 Z " fill="rgb(0, 0, 0)" fill-opacity="1.000000" />
<path d="M 300.892578 59.335938 L 300.892578 58.412109 L 307.729980 58.412109 L 307.729980 59.335938 Z " fill="rgb(0, 0, 0)" fill-opacity="1.000000" />
<path d="M 307.892578 59.335938 L 307.892578 58.412109 L 314.729980 58.412109 L 314.729980 59.335938 Z " fill="rgb(0, 0, 0)" fill-opacity="1.000000" />
<path d="M 314.892578 59.335938 L 314.892578 58.412109 L 321.729980 58.412109 L 321.729980 59.335938 Z " fill="rgb(0, 0, 0)" fill-opacity="1.000000" />
<path d="M 321.892578 59.335938 L 321.892578 58.412109 L 328.729980 58.412109 L 328.729980 59.335938 Z " fill="rgb(0, 0, 0)" fill-opacity="1.000000" />
<path d="M 328.892578 59.335938 L 328.892578 58.412109 L 335.729980 58.412109 L 335.729980 59.335938 Z " fill="rgb(0, 0, 0)" fill-opacity="1.000000" />
<path d="M 335.892578 59.335938 L 335.892578 58.412109 L 342.729980 58.412109 L 342.729980 59.335938 Z " fill="rgb(0, 0, 0)" fill-opacity="1.000000" />
<path d="M 342.892578 59.335938 L 342.892578 58.412109 L 349.729980 58.412109 L 349.729980 59.335938 Z " fill="rgb(0, 0, 0)" fill-opacity="1.000000" />
<path d="M 349.892578 59.335938 L 349.892578 58.412109 L 356.729980 58.412109 L 356.729980 59.335938 Z " fill="rgb(0, 0, 0)" fill-opacity="1.000000" />
<path d="M 356.892578 59.335938 L 356.892578 58.412109 L 363.729980 58.412109 L 363.729980 59.335938 Z " fill="rgb(0, 0, 0)" fill-opacity="1.000000" />
<path d="M 363.892578 59.335938 L 363.892578 58.412109 L 370.729980 58.412109 L 370.729980 59.335938 Z " fill="rgb(0, 0, 0)" fill-opacity="1.000000" />
<path d="M 370.892578 59.335938 L 370.892578 58.412109 L 377.729980 58.412109 L 377.729980 59.335938 Z " fill="rgb(0, 0, 0)" fill-opacity="1.000000" />
<path d="M 377.892578 59.335938 L 377.892578 58.412109 L 384.729980 58.412109 L 384.729980 59.335938 Z " fill="rgb(0, 0, 0)" fill-opacity="1.000000" />
<path d="M 384.892578 59.335938 L 384.892578 58.412109 L 391.729980 58.412109 L 391.729980 59.335938 Z " fill="rgb(0, 0, 0)" fill-opacity="1.000000" />
<path d="M 391.892578 59.335938 L 391.892578 58.412109 L 398.729980 58.412109 L 398.729980 59.335938 Z " fill="rgb(0, 0, 0)" fill-opacity="1.000000" />
<path d="M 401.878906 65.319336 L 401.878906 59.335938 L 398.892578 59.335938 L 398.892578 58.412109 L 402.738281 58.412109 L 402.738281 65.319336 Z " fill="rgb(0, 0, 0)" fill-opacity="1.000000" />
<path d="M 272.892578 33.335938 L 272.892578 32.412109 L 279.729980 32.412109 L 279.729980 33.335938 Z " fill="rgb(0, 0, 0)" fill-opacity="1.000000" />
<path d="M 279.892578 33.335938 L 279.892578 32.412109 L 286.729980 32.412109 L 286.729980 33.335938 Z " fill="rgb(0, 0, 0)" fill-opacity="1.000000" />
<path d="M 286.892578 33.335938 L 286.892578 32.412109 L 293.729980 32.412109 L 293.729980 33.335938 Z " fill="rgb(0, 0, 0)" fill-opacity="1.000000" />
<path d="M 293.892578 33.335938 L 293.892578 32.412109 L 300.729980 32.412109 L 300.729980 33.335938 Z " fill="rgb(0, 0, 0)" fill-opacity="1.000000" />
<path d="M 300.892578 33.335938 L 300.892578 32.412109 L 307.729980 32.412109 L 307.729980 33.335938 Z " fill="rgb(0, 0, 0)" fill-opacity="1.000000" />
<path d="M 307.892578 33.335938 L 307.892578 32.412109 L 314.729980 32.412109 L 314.729980 33.335938 Z " fill="rgb(0, 0, 0)" fill-opacity="1.000000" />
<path d="M 314.892578 33.335938 L 314.892578 32.412109 L 321.729980 32.412109 L 321.729980 33.335938 Z " fill="rgb(0, 0, 0)" fill-opacity="1.000000" />
<path d="M 321.892578 33.335938 L 321.892578 32.412109 L 328.729980 32.412109 L 328.729980 33.335938 Z " fill="rgb(0, 0, 0)" fill-opacity="1.000000" />
<path d="M 328.892578 33.335938 L 328.892578 32.412109 L 335.729980 32.412109 L 335.729980 33.335938 Z " fill="rgb(0, 0, 0)" fill-opacity="1.000000" />
<path d="M 335.892578 33.335938 L 335.892578 32.412109 L 342.729980 32.412109 L 342.729980 33.335938 Z " fill="rgb(0, 0, 0)" fill-opacity="1.000000" />
<path d="M 342.892578 33.335938 L 342.892578 32.412109 L 349.729980 32.412109 L 349.729980 33.335938 Z " fill="rgb(0, 0, 0)" fill-opacity="1.000000" />
<path d="M 349.892578 33.335938 L 349.892578 32.412109 L 356.729980 32.412109 L 356.729980 33.335938 Z " fill="rgb(0, 0, 0)" fill-opacity="1.000000" />
<path d="M 356.892578 33.335938 L 356.892578 32.412109 L 363.729980 32.412109 L 363.729980 33.335938 Z " fill="rgb(0, 0, 0)" fill-opacity="1.000000" />
<path d="M 363.892578 33.335938 L 363.892578 32.412109 L 370.729980 32.412109 L 370.729980 33.335938 Z " fill="rgb(0, 0, 0)" fill-opacity="1.000000" />
<path d="M 370.892578 33.335938 L 370.892578 32.412109 L 377.729980 32.412109 L 377.729980 33.335938 Z " fill="rgb(0, 0, 0)" fill-opacity="1.000000" />
<path d="M 377.892578 33.335938 L 377.892578 32.412109 L 384.729980 32.412109 L 384.729980 33.335938 Z " fill="rgb(0, 0, 0)" fill-opacity="1.000000" />
<path d="M 384.892578 33.335938 L 384.892578 32.412109 L 391.729980 32.412109 L 391.729980 33.335938 Z " fill="rgb(0, 0, 0)" fill-opacity="1.000000" />
<path d="M 391.892578 33.335938 L 391.892578 32.412109 L 398.729980 32.412109 L 398.729980 33.335938 Z " fill="rgb(0, 0, 0)" fill-opacity="1.000000" />
<path d="M 398.892578 33.335938 L 398.892578 32.412109 L 401.878906 32.412109 L 401.878906 25.300781 L 402.738281 25.300781 L 402.738281 33.335938 Z " fill="rgb(0, 0, 0)" fill-opacity="1.000000" />
<path d="M 223.892578 20.335938 L 223.892578 19.412109 L 230.729980 19.412109 L 230.729980 20.335938 Z " fill="rgb(0, 0, 0)" fill-opacity="1.000000" />
<path d="M 230.892578 20.335938 L 230.892578 19.412109 L 237.729980 19.412109 L 237.729980 20.335938 Z " fill="rgb(0, 0, 0)" fill-opacity="1.000000" />
<path d="M 237.892578 20.335938 L 237.892578 19.412109 L 244.729980 19.412109 L 244.729980 20.335938 Z " fill="rgb(0, 0, 0)" fill-opacity="1.000000" />
<path d="M 244.892578 20.335938 L 244.892578 19.412109 L 251.729980 19.412109 L 251.729980 20.335938 Z " fill="rgb(0, 0, 0)" fill-opacity="1.000000" />
<path d="M 251.892578 20.335938 L 251.892578 19.412109 L 258.729980 19.412109 L 258.729980 20.335938 Z " fill="rgb(0, 0, 0)" fill-opacity="1.000000" />
<path d="M 259.032227 23.418945 L 259.032227 16.866211 L 265.590332 20.142578 Z " fill="rgb(0, 0, 0)" fill-opacity="1.000000" />
<path d="M 268.878906 26.319336 L 268.878906 12.300781 L 269.738281 12.300781 L 269.738281 26.319336 Z " fill="rgb(0, 0, 0)" fill-opacity="1.000000" />
<path d="M 308.956055 14.980957 L 314.160645 14.980957 L 314.160645 15.808105 L 309.971191 22.086914 L 314.278809 22.086914 L 314.278809 23.000000 L 308.837891 23.000000 L 308.837891 22.172852 L 312.914551 15.894043 L 308.956055 15.894043 Z " fill="rgb(0, 0, 0)" fill-opacity="1.000000" />
<path d="M 316.697266 17.005859 L 319.227051 17.005859 L 319.227051 22.231934 L 321.187500 22.231934 L 321.187500 23.000000 L 316.278320 23.000000 L 316.278320 22.231934 L 318.238770 22.231934 L 318.238770 17.773926 L 316.697266 17.773926 Z M 318.238770 14.669434 L 319.227051 14.669434 L 319.227051 15.915527 L 318.238770 15.915527 Z " fill="rgb(0, 0, 0)" fill-opacity="1.000000" />
<path d="M 324.014160 22.242676 L 324.014160 25.288086 L 323.020508 25.288086 L 323.020508 16.984375 L 324.014160 16.984375 L 324.014160 17.752441 Q 324.261230 17.306641 324.672119 17.072998 Q 325.083008 16.839355 325.620117 16.839355 Q 326.710449 16.839355 327.330811 17.682617 Q 327.951172 18.525879 327.951172 20.019043 Q 327.951172 21.485352 327.328125 22.320557 Q 326.705078 23.155762 325.620117 23.155762 Q 325.072266 23.155762 324.661377 22.922119 Q 324.250488 22.688477 324.014160 22.242676 Z M 326.914551 19.997559 Q 326.914551 18.848145 326.552002 18.262695 Q 326.189453 17.677246 325.475098 17.677246 Q 324.755371 17.677246 324.384766 18.265381 Q 324.014160 18.853516 324.014160 19.997559 Q 324.014160 21.136230 324.384766 21.727051 Q 324.755371 22.317871 325.475098 22.317871 Q 326.189453 22.317871 326.552002 21.732422 Q 326.914551 21.146973 326.914551 19.997559 Z " fill="rgb(0, 0, 0)" fill-opacity="1.000000" />
<path d="M 334.698730 22.693848 Q 334.301270 22.924805 333.879639 23.040283 Q 333.458008 23.155762 333.017578 23.155762 Q 331.621094 23.155762 330.834229 22.317871 Q 330.047363 21.479980 330.047363 19.997559 Q 330.047363 18.515137 330.834229 17.677246 Q 331.621094 16.839355 333.017578 16.839355 Q 333.452637 16.839355 333.866211 16.952148 Q 334.279785 17.064941 334.698730 17.301270 L 334.698730 18.337891 Q 334.306641 17.988770 333.911865 17.833008 Q 333.517090 17.677246 333.017578 17.677246 Q 332.088379 17.677246 331.588867 18.278809 Q 331.089355 18.880371 331.089355 19.997559 Q 331.089355 21.109375 331.591553 21.713623 Q 332.093750 22.317871 333.017578 22.317871 Q 333.533203 22.317871 333.941406 22.159424 Q 334.349609 22.000977 334.698730 21.667969 Z " fill="rgb(0, 0, 0)" fill-opacity="1.000000" />
<path d="M 339.308594 17.677246 Q 338.556641 17.677246 338.169922 18.262695 Q 337.783203 18.848145 337.783203 19.997559 Q 337.783203 21.141602 338.169922 21.729736 Q 338.556641 22.317871 339.308594 22.317871 Q 340.065918 22.317871 340.452637 21.729736 Q 340.839355 21.141602 340.839355 19.997559 Q 340.839355 18.848145 340.452637 18.262695 Q 340.065918 17.677246 339.308594 17.677246 Z M 339.308594 16.839355 Q 340.560059 16.839355 341.223389 17.650391 Q 341.886719 18.461426 341.886719 19.997559 Q 341.886719 21.539062 341.226074 22.347412 Q 340.565430 23.155762 339.308594 23.155762 Q 338.057129 23.155762 337.396484 22.347412 Q 336.735840 21.539062 336.735840 19.997559 Q 336.735840 18.461426 337.396484 17.650391 Q 338.057129 16.839355 339.308594 16.839355 Z " fill="rgb(0, 0, 0)" fill-opacity="1.000000" />
<path d="M 347.608398 17.752441 L 347.608398 14.642578 L 348.596680 14.642578 L 348.596680 23.000000 L 347.608398 23.000000 L 347.608398 22.242676 Q 347.361328 22.688477 346.950439 22.922119 Q 346.539551 23.155762 346.002441 23.155762 Q 344.912109 23.155762 344.286377 22.309814 Q 343.660645 21.463867 343.660645 19.976074 Q 343.660645 18.509766 344.289062 17.674561 Q 344.917480 16.839355 346.002441 16.839355 Q 346.544922 16.839355 346.958496 17.072998 Q 347.372070 17.306641 347.608398 17.752441 Z M 344.702637 19.997559 Q 344.702637 21.146973 345.067871 21.732422 Q 345.433105 22.317871 346.147461 22.317871 Q 346.861816 22.317871 347.235107 21.727051 Q 347.608398 21.136230 347.608398 19.997559 Q 347.608398 18.853516 347.235107 18.265381 Q 346.861816 17.677246 346.147461 17.677246 Q 345.433105 17.677246 345.067871 18.262695 Q 344.702637 18.848145 344.702637 19.997559 Z " fill="rgb(0, 0, 0)" fill-opacity="1.000000" />
<path d="M 356.015625 19.498047 L 356.015625 19.981445 L 351.734863 19.981445 L 351.734863 20.013672 Q 351.691895 21.243652 352.204834 21.780762 Q 352.717773 22.317871 353.652344 22.317871 Q 354.125000 22.317871 354.640625 22.167480 Q 355.156250 22.017090 355.741699 21.710938 L 355.741699 22.693848 Q 355.177734 22.924805 354.654053 23.040283 Q 354.130371 23.155762 353.641602 23.155762 Q 352.239746 23.155762 351.450195 22.315186 Q 350.660645 21.474609 350.660645 19.997559 Q 350.660645 18.558105 351.434082 17.698730 Q 352.207520 16.839355 353.496582 16.839355 Q 354.645996 16.839355 355.309326 17.618164 Q 355.972656 18.396973 356.015625 19.498047 Z M 355.027344 19.208008 Q 354.962891 18.584961 354.573486 18.131104 Q 354.184082 17.677246 353.453613 17.677246 Q 352.739258 17.677246 352.277344 18.149902 Q 351.815430 18.622559 351.772461 19.213379 Z " fill="rgb(0, 0, 0)" fill-opacity="1.000000" />
<path d="M 401.878906 26.319336 L 401.878906 12.300781 L 402.738281 12.300781 L 402.738281 26.319336 Z " fill="rgb(0, 0, 0)" fill-opacity="1.000000" />
<path d="M 414.503906 19.820312 Q 414.686523 19.820312 414.783203 20.121094 Q 414.971191 20.690430 415.051758 20.690430 Q 415.116211 20.690430 415.180664 20.593750 Q 416.496582 18.477539 417.624512 17.172363 Q 417.914551 16.833984 418.548340 16.833984 Q 418.698730 16.833984 418.749756 16.860840 Q 418.800781 16.887695 418.800781 16.930664 Q 418.800781 17.000488 418.645020 17.188477 Q 416.829590 19.369141 415.282715 21.796875 Q 415.175293 21.968750 414.842285 21.968750 Q 414.503906 21.968750 414.439453 21.936523 Q 414.278320 21.866699 414.063477 21.216797 Q 413.821777 20.497070 413.821777 20.314453 Q 413.821777 20.121094 414.149414 19.938477 Q 414.348145 19.820312 414.503906 19.820312 Z " fill="rgb(0, 0, 0)" fill-opacity="1.000000" />
<path d="M 268.878906 13.319336 L 268.878906 6.412109 L 272.729980 6.412109 L 272.729980 7.335938 L 269.738281 7.335938 L 269.738281 13.319336 Z " fill="rgb(0, 0, 0)" fill-opacity="1.000000" />
<path d="M 272.892578 7.335938 L 272.892578 6.412109 L 279.729980 6.412109 L 279.729980 7.335938 Z " fill="rgb(0, 0, 0)" fill-opacity="1.000000" />
<path d="M 279.892578 7.335938 L 279.892578 6.412109 L 286.729980 6.412109 L 286.729980 7.335938 Z " fill="rgb(0, 0, 0)" fill-opacity="1.000000" />
<path d="M 286.892578 7.335938 L 286.892578 6.412109 L 293.729980 6.412109 L 293.729980 7.335938 Z " fill="rgb(0, 0, 0)" fill-opacity="1.000000" />
<path d="M 293.892578 7.335938 L 293.892578 6.412109 L 300.729980 6.412109 L 300.729980 7.335938 Z " fill="rgb(0, 0, 0)" fill-opacity="1.000000" />
<path d="M 300.892578 7.335938 L 300.892578 6.412109 L 307.729980 6.412109 L 307.729980 7.335938 Z " fill="rgb(0, 0, 0)" fill-opacity="1.000000" />
<path d="M 307.892578 7.335938 L 307.892578 6.412109 L 314.729980 6.412109 L 314.729980 7.335938 Z " fill="rgb(0, 0, 0)" fill-opacity="1.000000" />
<path d="M 314.892578 7.335938 L 314.892578 6.412109 L 321.729980 6.412109 L 321.729980 7.335938 Z " fill="rgb(0, 0, 0)" fill-opacity="1.000000" />
<path d="M 321.892578 7.335938 L 321.892578 6.412109 L 328.729980 6.412109 L 328.729980 7.335938 Z " fill="rgb(0, 0, 0)" fill-opacity="1.000000" />
<path d="M 328.892578 7.335938 L 328.892578 6.412109 L 335.729980 6.412109 L 335.729980 7.335938 Z " fill="rgb(0, 0, 0)" fill-opacity="1.000000" />
<path d="M 335.892578 7.335938 L 335.892578 6.412109 L 342.729980 6.412109 L 342.729980 7.335938 Z " fill="rgb(0, 0, 0)" fill-opacity="1.000000" />
<path d="M 342.892578 7.335938 L 342.892578 6.412109 L 349.729980 6.412109 L 349.729980 7.335938 Z " fill="rgb(0, 0, 0)" fill-opacity="1.000000" />
<path d="M 349.892578 7.335938 L 349.892578 6.412109 L 356.729980 6.412109 L 356.729980 7.335938 Z " fill="rgb(0, 0, 0)" fill-opacity="1.000000" />
<path d="M 356.892578 7.335938 L 356.892578 6.412109 L 363.729980 6.412109 L 363.729980 7.335938 Z " fill="rgb(0, 0, 0)" fill-opacity="1.000000" />
<path d="M 363.892578 7.335938 L 363.892578 6.412109 L 370.729980 6.412109 L 370.729980 7.335938 Z " fill="rgb(0, 0, 0)" fill-opacity="1.000000" />
<path d="M 370.892578 7.335938 L 370.892578 6.412109 L 377.729980 6.412109 L 377.729980 7.335938 Z " fill="rgb(0, 0, 0)" fill-opacity="1.000000" />
<path d="M 377.892578 7.335938 L 377.892578 6.412109 L 384.729980 6.412109 L 384.729980 7.335938 Z " fill="rgb(0, 0, 0)" fill-opacity="1.000000" />
<path d="M 384.892578 7.335938 L 384.892578 6.412109 L 391.729980 6.412109 L 391.729980 7.335938 Z " fill="rgb(0, 0, 0)" fill-opacity="1.000000" />
<path d="M 391.892578 7.335938 L 391.892578 6.412109 L 398.729980 6.412109 L 398.729980 7.335938 Z " fill="rgb(0, 0, 0)" fill-opacity="1.000000" />
<path d="M 401.878906 13.319336 L 401.878906 7.335938 L 398.892578 7.335938 L 398.892578 6.412109 L 402.738281 6.412109 L 402.738281 13.319336 Z " fill="rgb(0, 0, 0)" fill-opacity="1.000000" />
</svg>